{"title":"Awkward Season 5 S05 Complete [720p] ~{KiNg}","uid":14741763,"size":5208239755,"categoryP":"video","categoryS":"hd___tv_shows","magnet":"?xt=urn:btih:f3e98f8a6d5ce78e5d6fac0822095329e2eb5da4&amp;dn=Awkward+Season+5+S05+Complete+%5B720p%5D+%7E%7BKiNg%7D&amp;tr=udp%3A%2F%2Ftracker.leechers-paradise.org%3A6969&amp;tr=udp%3A%2F%2Fzer0day.ch%3A1337&amp;tr=udp%3A%2F%2Fopen.demonii.com%3A1337&amp;tr=udp%3A%2F%2Ftracker.coppersurfer.tk%3A6969&amp;tr=udp%3A%2F%2Fexodus.desync.com%3A6969","seeders":40,"leechers":14,"uploader":"Uplaoderking","files":24,"time":1464677313,"description":"General\r\nFormat : Matroska\r\nFormat version : Version 4 / Version 2\r\nFile size : 205 MiB\r\nDuration : 20mn 30s\r\nOverall bit rate : 1 396 Kbps\r\n\r\nVideo\r\nID : 1\r\nFormat : AVC\r\nFormat/Info : Advanced Video Codec\r\nFormat profile :   \r\nFormat settings, CABAC : Yes\r\nFormat settings, ReFrames : 4 frames\r\nCodec ID : V_MPEG4/ISO/AVC\r\nDuration : 20mn 30s\r\nBit rate : 1 311 Kbps\r\nWidth : 1 280 pixels\r\nHeight : 720 pixels\r\nDisplay aspect ratio : 16:9\r\nFrame rate mode : Constant\r\nFrame rate : 23.976 (24000/1001) fps\r\nColor space : YUV\r\nChroma subsampling : 4:2:0\r\nBit depth : 8 bits\r\nScan type : Progressive\r\nBits/(Pixel*Frame) : 0.059\r\nStream size : 192 MiB (94%)\r\n\r\nAudio\r\nID : 2\r\nFormat : AAC\r\nFormat/Info : Advanced Audio Codec\r\nFormat profile : LC\r\nCodec ID : A_AAC\r\nDuration : 20mn 30s\r\nBit rate : 82.2 Kbps\r\nChannel(s) : 2 channels\r\nChannel positions : Front: L R\r\nSampling rate : 48.0 KHz\r\nFrame rate : 46.875 fps (1024 spf)\r\nCompression mode : Lossy\r\nDelay relative to video : 9ms\r\nStream size : 12.1 MiB (6%)\r\nLanguage : English\r\nDefault : No\r\nForced : No","torrent":{"xt":"urn:btih:f3e98f8a6d5ce78e5d6fac0822095329e2eb5da4","amp;dn":"Awkward+Season+5+S05+Complete+%5B720p%5D+%7E%7BKiNg%7D","amp;tr":["udp%3A%2F%2Ftracker.leechers-paradise.org%3A6969","udp%3A%2F%2Fzer0day.ch%3A1337","udp%3A%2F%2Fopen.demonii.com%3A1337","udp%3A%2F%2Ftracker.coppersurfer.tk%3A6969","udp%3A%2F%2Fexodus.desync.com%3A6969"],"infoHash":"f3e98f8a6d5ce78e5d6fac0822095329e2eb5da4","infoHashBuffer":{"type":"Buffer","data":[243,233,143,138,109,92,231,142,93,111,172,8,34,9,83,41,226,235,93,164]},"announce":[],"urlList":[]}}